<svg width="16" height="16" viewBox="0 0 16 16" fill="none" xmlns="http://www.w3.org/2000/svg">
<path fill-rule="evenodd" clip-rule="evenodd" d="M5.99967 3.36882C5.95634 4.46349 5.99967 11.3508 5.99967 11.3508C6.10723 11.3508 6.21256 11.3679 6.31567 11.4022L9.99967 12.6302V4.64815C9.89227 4.64812 9.78557 4.63079 9.68367 4.59682L5.99967 3.36882ZM5.68367 2.06882C5.8888 2.0005 6.11055 2.0005 6.31567 2.06882L9.99967 3.29682L13.5257 2.12149C13.6559 2.07808 13.7946 2.06624 13.9304 2.08694C14.0661 2.10765 14.195 2.16031 14.3064 2.24058C14.4178 2.32085 14.5085 2.42644 14.5711 2.54865C14.6337 2.67086 14.6663 2.80618 14.6663 2.94349V11.7595C14.6663 11.9694 14.6002 12.174 14.4775 12.3442C14.3547 12.5145 14.1815 12.6418 13.9823 12.7082L10.3157 13.9302C10.1103 13.9988 9.88901 13.9988 9.68367 13.9302L5.99967 12.7022L2.47367 13.8775C2.34342 13.9209 2.20471 13.9327 2.06898 13.912C1.93325 13.8913 1.80438 13.8387 1.69298 13.7584C1.58159 13.6781 1.49087 13.5725 1.42828 13.4503C1.3657 13.3281 1.33304 13.1928 1.33301 13.0555V4.23949C1.33303 4.02958 1.3991 3.825 1.52186 3.65473C1.64463 3.48447 1.81786 3.35715 2.01701 3.29082L5.68367 2.06882Z" fill="#5B4FF4"/>
</svg>
