<svg width="24" height="24" viewBox="0 0 24 24" fill="none" xmlns="http://www.w3.org/2000/svg">
<path d="M11.5 2.28815C11.8093 2.1096 12.1907 2.10976 12.5 2.28815L18.4287 5.711C18.7381 5.88964 18.9287 6.21996 18.9287 6.57721V13.6436C18.9287 13.8737 18.8494 14.097 18.7041 14.2755L12.7754 21.5489C12.3753 22.0395 11.6257 22.0395 11.2256 21.5489L5.29688 14.2755C5.15152 14.097 5.07227 13.8737 5.07227 13.6436V6.57721C5.07227 6.21995 5.26287 5.88963 5.57227 5.711L11.5 2.28815ZM12.5 7.28815C12.1906 7.10958 11.8094 7.10958 11.5 7.28815L9.90234 8.211C9.59294 8.38963 9.40234 8.71994 9.40234 9.07721V10.9219C9.40234 11.2792 9.59294 11.6095 9.90234 11.7881L11.5 12.711C11.8094 12.8896 12.1906 12.8896 12.5 12.711L14.0977 11.7881C14.4071 11.6095 14.5977 11.2792 14.5977 10.9219V9.07721C14.5977 8.71994 14.4071 8.38963 14.0977 8.211L12.5 7.28815Z" fill="black"/>
</svg>
