<svg width="20" height="20" viewBox="0 0 20 20" fill="none" xmlns="http://www.w3.org/2000/svg">
<path d="M9.58333 1.9069C9.84117 1.75804 10.1595 1.75804 10.4173 1.9069L15.3568 4.75944C15.6146 4.9083 15.7738 5.18341 15.7738 5.48112V11.3698C15.7738 11.5616 15.7074 11.7475 15.5863 11.8962L10.6468 17.9577C10.3134 18.3667 9.68833 18.3665 9.35482 17.9577L4.41439 11.8962C4.29329 11.7475 4.22689 11.5615 4.22689 11.3698V5.48112C4.22689 5.18341 4.38605 4.9083 4.64388 4.75944L9.58333 1.9069ZM10.4163 6.0739C10.1586 5.92518 9.84108 5.92509 9.58333 6.0739L8.2513 6.84245C7.99361 6.99126 7.83541 7.26657 7.83529 7.56413V9.10222C7.83529 9.39985 7.9936 9.675 8.2513 9.8239L9.58333 10.5925C9.84113 10.7413 10.1585 10.7413 10.4163 10.5925L11.7484 9.8239C12.0062 9.67503 12.1654 9.39994 12.1654 9.10222V7.56413C12.1652 7.26654 12.0061 6.99125 11.7484 6.84245L10.4163 6.0739Z" fill="black"/>
</svg>
