<svg width="24" height="24" viewBox="0 0 24 24" fill="none" xmlns="http://www.w3.org/2000/svg">
<path fill-rule="evenodd" clip-rule="evenodd" d="M15.6858 3C16.2158 3 16.7242 3.2104 17.0992 3.58497L20.4134 6.89534C20.789 7.27048 21 7.77954 21 8.31037V12.9896C21 13.5205 20.789 14.0295 20.4134 14.4047L17.0992 17.715C16.7242 18.0896 16.2158 18.3 15.6858 18.3H5.85102C5.74454 18.3 5.64245 18.3425 5.56737 18.418L3.85456 20.1406C3.53999 20.4569 3 20.2342 3 19.788V13.8187V13.8V8.31037C3 7.77954 3.21103 7.27048 3.58661 6.89534L6.90084 3.58496C7.27584 3.21039 7.7842 3 8.31423 3H15.6858ZM15.6 12.0001C16.0971 12.0001 16.5 11.5972 16.5 11.1001C16.5 10.603 16.0971 10.2001 15.6 10.2001C15.1029 10.2001 14.7 10.603 14.7 11.1001C14.7 11.5972 15.1029 12.0001 15.6 12.0001ZM12.9 11.1001C12.9 11.5972 12.4971 12.0001 12 12.0001C11.5029 12.0001 11.1 11.5972 11.1 11.1001C11.1 10.603 11.5029 10.2001 12 10.2001C12.4971 10.2001 12.9 10.603 12.9 11.1001ZM8.4 12C8.89706 12 9.3 11.5971 9.3 11.1C9.3 10.6029 8.89706 10.2 8.4 10.2C7.90294 10.2 7.5 10.6029 7.5 11.1C7.5 11.5971 7.90294 12 8.4 12Z" fill="black"/>
</svg>
