<svg width="25" height="24" viewBox="0 0 25 24" fill="none" xmlns="http://www.w3.org/2000/svg">
<mask id="path-1-inside-1_2273_45897" fill="white">
<path d="M6.5 7.82047C6.5 7.61204 6.56512 7.40883 6.68627 7.23923L8.70088 4.41876C8.8886 4.15597 9.19167 4 9.51462 4H15.4854C15.8083 4 16.1114 4.15597 16.2991 4.41876L18.3137 7.23923C18.4349 7.40883 18.5 7.61204 18.5 7.82047V18C18.5 18.5523 18.0523 19 17.5 19H7.5C6.94772 19 6.5 18.5523 6.5 18L6.5 7.82047Z"/>
</mask>
<path d="M6.5 7.82047C6.5 7.61204 6.56512 7.40883 6.68627 7.23923L8.70088 4.41876C8.8886 4.15597 9.19167 4 9.51462 4H15.4854C15.8083 4 16.1114 4.15597 16.2991 4.41876L18.3137 7.23923C18.4349 7.40883 18.5 7.61204 18.5 7.82047V18C18.5 18.5523 18.0523 19 17.5 19H7.5C6.94772 19 6.5 18.5523 6.5 18L6.5 7.82047Z" fill="#999999"/>
<path d="M16.2991 4.41876L14.6716 5.58124L16.2991 4.41876ZM8.70088 4.41876L7.07342 3.25629L8.70088 4.41876ZM6.5 18H8.5H6.5ZM18.3137 7.23923L16.6863 8.4017L18.3137 7.23923ZM6.5 7.82047H4.5H6.5ZM6.68627 7.23923L8.31373 8.4017L6.68627 7.23923ZM16.5 7.82047V18H20.5V7.82047H16.5ZM17.5 17H7.5V21H17.5V17ZM8.5 18V7.82047H4.5V18H8.5ZM8.31373 8.4017L10.3284 5.58124L7.07342 3.25629L5.0588 6.07675L8.31373 8.4017ZM9.51462 6H15.4854V2H9.51462V6ZM14.6716 5.58124L16.6863 8.4017L19.9412 6.07675L17.9266 3.25629L14.6716 5.58124ZM15.4854 6C15.1624 6 14.8594 5.84403 14.6716 5.58124L17.9266 3.25629C17.3634 2.4679 16.4542 2 15.4854 2V6ZM10.3284 5.58124C10.1406 5.84403 9.83757 6 9.51462 6V2C8.54576 2 7.63655 2.4679 7.07342 3.25629L10.3284 5.58124ZM7.5 17C8.05229 17 8.5 17.4477 8.5 18H4.5C4.5 19.6569 5.84314 21 7.5 21V17ZM16.5 18C16.5 17.4477 16.9477 17 17.5 17V21C19.1569 21 20.5 19.6569 20.5 18H16.5ZM20.5 7.82047C20.5 7.1952 20.3046 6.58555 19.9412 6.07675L16.6863 8.4017C16.5651 8.2321 16.5 8.02889 16.5 7.82047H20.5ZM8.5 7.82047C8.5 8.02889 8.43488 8.2321 8.31373 8.4017L5.0588 6.07675C4.69537 6.58555 4.5 7.1952 4.5 7.82047H8.5Z" fill="#999999" mask="url(#path-1-inside-1_2273_45897)"/>
<rect x="11" y="2" width="3" height="4" rx="1.5" fill="#999999"/>
<path fill-rule="evenodd" clip-rule="evenodd" d="M10.5 20C10.5 21.1046 11.3954 22 12.5 22C13.6046 22 14.5 21.1046 14.5 20H10.5Z" fill="#999999"/>
<rect x="4.5" y="17" width="16" height="2" rx="1" fill="#999999"/>
</svg>
