<svg width="24" height="24" viewBox="0 0 24 24" fill="none" xmlns="http://www.w3.org/2000/svg">
<mask id="path-1-inside-1_2273_44996" fill="white">
<path d="M6 7.82047C6 7.61204 6.06512 7.40883 6.18627 7.23923L8.20088 4.41876C8.3886 4.15597 8.69167 4 9.01462 4H14.9854C15.3083 4 15.6114 4.15597 15.7991 4.41876L17.8137 7.23923C17.9349 7.40883 18 7.61204 18 7.82047V18C18 18.5523 17.5523 19 17 19H7C6.44772 19 6 18.5523 6 18L6 7.82047Z"/>
</mask>
<path d="M6 7.82047C6 7.61204 6.06512 7.40883 6.18627 7.23923L8.20088 4.41876C8.3886 4.15597 8.69167 4 9.01462 4H14.9854C15.3083 4 15.6114 4.15597 15.7991 4.41876L17.8137 7.23923C17.9349 7.40883 18 7.61204 18 7.82047V18C18 18.5523 17.5523 19 17 19H7C6.44772 19 6 18.5523 6 18L6 7.82047Z" fill="black"/>
<path d="M15.7991 4.41876L14.1716 5.58124L15.7991 4.41876ZM8.20088 4.41876L9.82835 5.58124L8.20088 4.41876ZM6 18H8H6ZM17.8137 7.23923L16.1863 8.4017L17.8137 7.23923ZM6 7.82047H4H6ZM6.18627 7.23923L4.5588 6.07675L6.18627 7.23923ZM16 7.82047V18H20V7.82047H16ZM17 17H7V21H17V17ZM8 18V7.82047H4V18H8ZM7.81373 8.4017L9.82835 5.58124L6.57342 3.25629L4.5588 6.07675L7.81373 8.4017ZM9.01462 6H14.9854V2H9.01462V6ZM14.1716 5.58124L16.1863 8.4017L19.4412 6.07675L17.4266 3.25629L14.1716 5.58124ZM14.9854 6C14.6624 6 14.3594 5.84403 14.1716 5.58124L17.4266 3.25629C16.8634 2.4679 15.9542 2 14.9854 2V6ZM9.82835 5.58124C9.64064 5.84403 9.33757 6 9.01462 6V2C8.04576 2 7.13655 2.4679 6.57342 3.25629L9.82835 5.58124ZM7 17C7.55229 17 8 17.4477 8 18H4C4 19.6569 5.34314 21 7 21V17ZM16 18C16 17.4477 16.4477 17 17 17V21C18.6569 21 20 19.6569 20 18H16ZM20 7.82047C20 7.1952 19.8046 6.58555 19.4412 6.07675L16.1863 8.4017C16.0651 8.2321 16 8.02889 16 7.82047H20ZM8 7.82047C8 8.02889 7.93488 8.2321 7.81373 8.4017L4.5588 6.07675C4.19537 6.58555 4 7.1952 4 7.82047H8Z" fill="black" mask="url(#path-1-inside-1_2273_44996)"/>
<rect x="10.5" y="2" width="3" height="4" rx="1.5" fill="black"/>
<path fill-rule="evenodd" clip-rule="evenodd" d="M10 20C10 21.1046 10.8954 22 12 22C13.1046 22 14 21.1046 14 20H10Z" fill="black"/>
<rect x="4" y="17" width="16" height="2" rx="1" fill="black"/>
</svg>
