<svg width="24" height="24" viewBox="0 0 24 24" fill="none" xmlns="http://www.w3.org/2000/svg">
<path d="M8.31738 4H15.6826C15.9152 4 16.1393 4.08119 16.3174 4.22754L16.3916 4.29395L19.709 7.625C19.8956 7.81241 20 8.06657 20 8.33105V13.0498C20 13.2814 19.9197 13.5048 19.7744 13.6826L19.709 13.7559L16.3916 17.0869C16.2039 17.2753 15.9485 17.3809 15.6826 17.3809H6.69141C5.80097 17.3809 4.95955 17.7762 4.3916 18.4541L4.28223 18.5938L4 18.9736V8.33105C4 8.09946 4.08031 7.87604 4.22559 7.69824L4.29102 7.625L7.6084 4.29395C7.79605 4.10553 8.05146 4 8.31738 4Z" stroke="#666666" stroke-width="2"/>
<circle cx="12" cy="11" r="1" fill="#666666"/>
<circle cx="8" cy="11" r="1" fill="#666666"/>
<circle cx="16" cy="11" r="1" fill="#666666"/>
</svg>
