<svg width="74" height="87" viewBox="0 0 74 87" fill="none" xmlns="http://www.w3.org/2000/svg">
<path d="M69.5662 17.4791L41.4338 1.19132C38.6904 -0.397108 35.3096 -0.397108 32.5662 1.19132L4.43379 17.4791C1.69038 19.0676 0 22.0032 0 25.1801V53.2883V87L17.8172 76.6846C19.6761 75.6086 21.9672 75.6086 23.8272 76.6846L32.5662 81.7445C35.3096 83.3329 38.6904 83.3329 41.4338 81.7445L69.5662 65.4567C72.3096 63.8683 74 60.9326 74 57.7557V25.1812C74 22.0043 72.3096 19.0687 69.5662 17.4803V17.4791Z" fill="white"/>
<path d="M34.2323 17.5968C35.9451 16.6086 38.0549 16.6086 39.7677 17.5968L58.2292 28.2476C59.9437 29.2367 61 31.0656 61 33.045V54.3396C61 56.319 59.9437 58.1479 58.2292 59.137L39.7677 69.7879C38.0549 70.776 35.9451 70.776 34.2323 69.7879L15.7708 59.137C14.0563 58.1479 13 56.319 13 54.3396V33.045C13 31.0656 14.0563 29.2367 15.7708 28.2476L34.2323 17.5968Z" fill="black"/>
<path d="M27.4399 49.5977C27.5053 49.8607 27.6405 50.1017 27.8316 50.2939L30.52 53H22.7495C21.7749 52.9997 21.0596 52.0846 21.2944 51.1387L21.5767 50L24.5132 37.8203L27.4399 49.5977Z" fill="white"/>
<path d="M47.9776 35C48.6667 35 49.2675 35.4699 49.4336 36.1387L52.7061 49.3115C52.8142 49.7474 52.7206 50.2092 52.4522 50.5693L51.0908 52.3965C50.8077 52.7763 50.3614 53 49.8877 53H32.6338C32.2346 52.9999 31.8518 52.8407 31.5703 52.5576L29.3213 50.2939C29.1303 50.1017 28.995 49.8607 28.9297 49.5977L25.7656 36.8613C25.5308 35.9153 26.246 35.0002 27.2207 35H47.9776ZM43.9717 40.3057C43.591 39.8705 42.9316 39.8289 42.499 40.2119L38.1074 44.1006L36.4248 42.6113C35.9922 42.2285 35.3328 42.2708 34.9522 42.7061C34.5717 43.1414 34.6145 43.8045 35.0469 44.1875L37.418 46.2881C37.812 46.6369 38.4019 46.6368 38.7959 46.2881L43.8779 41.7881C44.3104 41.405 44.3523 40.7409 43.9717 40.3057Z" fill="white"/>
</svg>
