<svg width="74" height="87" viewBox="0 0 74 87" fill="none" xmlns="http://www.w3.org/2000/svg">
<path d="M69.5662 17.4791L41.4338 1.19132C38.6904 -0.397108 35.3096 -0.397108 32.5662 1.19132L4.43379 17.4791C1.69038 19.0676 0 22.0032 0 25.1801V53.2883V87L17.8172 76.6846C19.6761 75.6086 21.9672 75.6086 23.8272 76.6846L32.5662 81.7445C35.3096 83.3329 38.6904 83.3329 41.4338 81.7445L69.5662 65.4567C72.3096 63.8683 74 60.9326 74 57.7557V25.1812C74 22.0043 72.3096 19.0687 69.5662 17.4803V17.4791Z" fill="white"/>
<path d="M25.9233 45.1855L32.9723 52.0778L48.0772 37.3086" stroke="white" stroke-width="4" stroke-linecap="round" stroke-linejoin="round"/>
<path d="M34.2323 16.5968C35.9451 15.6086 38.0549 15.6086 39.7677 16.5968L58.2292 27.2476C59.9437 28.2367 61 30.0656 61 32.045V53.3396C61 55.319 59.9437 57.1479 58.2292 58.137L39.7677 68.7879C38.0549 69.776 35.9451 69.776 34.2323 68.7879L15.7708 58.137C14.0563 57.1479 13 55.319 13 53.3396V32.045C13 30.0656 14.0563 28.2367 15.7708 27.2476L34.2323 16.5968Z" fill="black"/>
<path d="M39.1763 55.803V54.1248C39.1763 53.8713 39.0395 53.6371 38.8173 53.5103L37.3466 52.6712C37.1244 52.5445 36.8507 52.5445 36.6286 52.6712L35.1578 53.5103C34.9357 53.6371 34.7988 53.8713 34.7988 54.1248V55.803C34.7988 56.0565 34.9357 56.2908 35.1578 56.4175L36.6286 57.2566C36.8507 57.3833 37.1244 57.3833 37.3466 57.2566L38.8173 56.4175C39.0395 56.2908 39.1763 56.0565 39.1763 55.803Z" fill="white"/>
<path d="M34.495 29.1591C34.6053 29.0568 34.7503 29 34.9008 29H39.0992C39.2497 29 39.3947 29.0568 39.505 29.1591L39.799 29.4316C39.9266 29.5498 39.9962 29.7179 39.9897 29.8918L39.3426 47.1349C39.3367 47.2932 39.2681 47.4426 39.1519 47.5503L38.8384 47.8409C38.728 47.9432 38.5831 48 38.4326 48H35.5674C35.4169 48 35.272 47.9432 35.1616 47.8409L34.8481 47.5503C34.7319 47.4426 34.6633 47.2932 34.6574 47.1349L34.0103 29.8918C34.0038 29.7179 34.0734 29.5498 34.201 29.4316L34.495 29.1591Z" fill="white"/>
</svg>
