<svg width="25" height="24" viewBox="0 0 25 24" fill="none" xmlns="http://www.w3.org/2000/svg">
<path fill-rule="evenodd" clip-rule="evenodd" d="M4.5095 7.88086L2.55152 16.0002L2.36299 16.7591C2.2063 17.3899 2.68354 18.0002 3.3335 18.0002H8.51376L6.72105 16.1961C6.5937 16.0679 6.50346 15.9076 6.4599 15.7323L4.5095 7.88086Z" fill="#333333"/>
<path fill-rule="evenodd" clip-rule="evenodd" d="M6.31396 6C5.66401 6 5.18677 6.6103 5.34346 7.24109L7.45273 15.7321C7.49629 15.9074 7.58654 16.0677 7.71388 16.1958L9.21332 17.7049C9.40104 17.8938 9.65636 18 9.92268 18H21.4254C21.7412 18 22.0385 17.8508 22.2272 17.5976L23.135 16.3794C23.314 16.1392 23.3759 15.8315 23.3037 15.5408L21.1221 6.75891C21.0114 6.31304 20.6111 6 20.1516 6H6.31396ZM17.4183 10.5256C17.7067 10.2702 17.7348 9.82784 17.481 9.53762C17.2272 9.24739 16.7877 9.21916 16.4993 9.47456L13.5714 12.0676L12.45 11.0746C12.1617 10.8192 11.7222 10.8474 11.4684 11.1376C11.2146 11.4278 11.2427 11.8702 11.531 12.1256L13.1119 13.5256C13.3746 13.7582 13.7681 13.7582 14.0309 13.5256L17.4183 10.5256Z" fill="black"/>
</svg>
