<svg width="25" height="24" viewBox="0 0 25 24" fill="none" xmlns="http://www.w3.org/2000/svg">
<path fill-rule="evenodd" clip-rule="evenodd" d="M12.667 2.28876C12.3576 2.11013 11.9764 2.11013 11.667 2.28876L5.73877 5.71141C5.42937 5.89004 5.23877 6.22017 5.23877 6.57743V13.6442C5.23877 13.8744 5.31819 14.0975 5.46364 14.276L11.3919 21.5491C11.792 22.04 12.542 22.04 12.9421 21.5491L18.8703 14.276C19.0158 14.0975 19.0952 13.8744 19.0952 13.6442V6.57744C19.0952 6.22017 18.9046 5.89004 18.5952 5.71141L12.667 2.28876ZM12.6665 7.28876C12.3571 7.11013 11.9759 7.11013 11.6665 7.28876L10.0684 8.21141C9.75903 8.39004 9.56843 8.72017 9.56843 9.07744V10.9227C9.56843 11.28 9.75903 11.6101 10.0684 11.7888L11.6665 12.7114C11.9759 12.89 12.3571 12.89 12.6665 12.7114L14.2646 11.7888C14.574 11.6101 14.7646 11.28 14.7646 10.9227V9.07744C14.7646 8.72017 14.574 8.39004 14.2646 8.21141L12.6665 7.28876Z" fill="black"/>
</svg>
