<svg width="25" height="24" viewBox="0 0 25 24" fill="none" xmlns="http://www.w3.org/2000/svg">
<path d="M18.0955 6.57715V13.6445L12.1667 20.917L6.23901 13.6445V6.57715L12.1667 3.1543L18.0955 6.57715Z" stroke="#CCCCCC" stroke-width="2" stroke-linejoin="round"/>
<path d="M11.6667 7.28868C11.9761 7.11004 12.3573 7.11004 12.6667 7.28868L14.2648 8.21132C14.5742 8.38996 14.7648 8.72008 14.7648 9.07735V10.9226C14.7648 11.2799 14.5742 11.61 14.2648 11.7887L12.6667 12.7113C12.3573 12.89 11.9761 12.89 11.6667 12.7113L10.0687 11.7887C9.75927 11.61 9.56867 11.2799 9.56867 10.9226V9.07735C9.56867 8.72008 9.75927 8.38996 10.0687 8.21132L11.6667 7.28868Z" fill="#CCCCCC"/>
</svg>
