<svg width="32" height="33" viewBox="0 0 32 33" fill="none" xmlns="http://www.w3.org/2000/svg">
<rect x="0.5" y="1" width="31" height="31" rx="15.5" fill="#F4F4F4"/>
<rect x="0.5" y="1" width="31" height="31" rx="15.5" stroke="#EEEEEE"/>
<circle cx="16" cy="17.5" r="3" fill="#666666"/>
<path fill-rule="evenodd" clip-rule="evenodd" d="M12.8516 7.72265C12.9443 7.58355 13.1004 7.5 13.2676 7.5H18.7324C18.8996 7.5 19.0557 7.58355 19.1484 7.72265L20.3333 9.5H23.5858C23.851 9.5 24.1054 9.60536 24.2929 9.79289L25.7071 11.2071C25.8946 11.3946 26 11.649 26 11.9142V23.0858C26 23.351 25.8946 23.6054 25.7071 23.7929L24.2929 25.2071C24.1054 25.3946 23.851 25.5 23.5858 25.5H8.41421C8.149 25.5 7.89464 25.3946 7.70711 25.2071L6.29289 23.7929C6.10536 23.6054 6 23.351 6 23.0858V11.9142C6 11.649 6.10536 11.3946 6.29289 11.2071L7.70711 9.79289C7.89464 9.60536 8.149 9.5 8.41421 9.5H11.6667L12.8516 7.72265ZM16 22.5C18.7614 22.5 21 20.2614 21 17.5C21 14.7386 18.7614 12.5 16 12.5C13.2386 12.5 11 14.7386 11 17.5C11 20.2614 13.2386 22.5 16 22.5ZM22 14.5C22.5523 14.5 23 14.0523 23 13.5C23 12.9477 22.5523 12.5 22 12.5C21.4477 12.5 21 12.9477 21 13.5C21 14.0523 21.4477 14.5 22 14.5Z" fill="#666666"/>
</svg>
