<svg width="180" height="104" viewBox="0 0 180 104" fill="none" xmlns="http://www.w3.org/2000/svg">
<g clip-path="url(#clip0_187_3671)">
<path d="M53.0433 12.7151H53.0447L33.6298 1.29429C30.6976 -0.430698 27.0847 -0.430698 24.1525 1.29429L4.73833 12.7151C1.80681 14.4401 0 17.6284 0 21.0784V43.922C0 47.372 1.80681 50.5603 4.73833 52.2853L24.1525 63.7068C27.0847 65.4318 30.6976 65.4318 33.6298 63.7068L38.441 60.8761V47.7467C38.441 46.7143 38.8829 44.6061 39.633 43.4748C39.8318 43.147 40.0545 42.8896 40.2983 42.7467L46.0191 39.3806C46.7117 38.9732 47.5304 39.2355 47.9212 39.8414C48.1131 40.0824 48.2314 40.3896 48.2314 40.738V55.1167L53.0433 52.2853C55.9748 50.5603 57.7816 47.372 57.7816 43.922V21.0784C57.7816 17.6284 55.9748 14.4401 53.0433 12.7151ZM24.593 56.5224C24.593 57.6331 23.4101 58.3263 22.464 57.771L5.83363 48.0176C4.73553 47.3741 4.05903 46.1839 4.05903 44.8962V25.4555C4.05903 24.3449 5.24186 23.6516 6.18869 24.2069L22.8184 33.9603C23.9165 34.6045 24.593 35.7941 24.593 37.0825V56.5224ZM40.0412 16.0982L35.1909 17.1619C33.6355 17.5025 32.2768 18.4681 31.419 19.8426L29.4749 22.9569C29.2018 23.3935 28.5792 23.3935 28.3053 22.9569L26.3613 19.8426C25.5034 18.4681 24.1448 17.5025 22.5894 17.1619L17.739 16.0982C17.0072 15.9382 17.0072 14.8653 17.739 14.7053L22.5894 13.6416C24.1448 13.301 25.5034 12.3354 26.3613 10.9609L28.3053 7.84655C28.5785 7.40997 29.2011 7.40997 29.4749 7.84655L31.419 10.9609C32.2768 12.3354 33.6355 13.301 35.1909 13.6416L40.0412 14.7053C40.7738 14.8653 40.7738 15.9382 40.0412 16.0982Z" fill="white"/>
<path d="M14.7803 35.4455L15.5233 38.2335C15.8343 39.3989 16.4968 40.5636 17.3364 41.4182L19.3456 43.4653C19.6566 43.7832 19.6566 44.298 19.3456 44.2503L17.3364 43.9453C16.4968 43.8166 15.8343 44.2048 15.5233 45.0069L14.7803 46.9246C14.6654 47.2225 14.2242 46.9637 14.1094 46.5314L13.3664 43.7434C13.0554 42.578 12.3929 41.414 11.5532 40.5586L9.54473 38.5129C9.23379 38.1951 9.23379 37.6803 9.54473 37.7279L11.5546 38.033C12.3943 38.1617 13.0568 37.7734 13.3678 36.9714L14.1108 35.0537C14.2256 34.7558 14.6668 35.0146 14.7817 35.4469L14.7803 35.4455Z" fill="white"/>
<path d="M95.3513 25.0109C95.3513 25.3935 94.9136 25.599 94.6258 25.3522C94.0186 24.8317 93.3596 24.366 92.6194 23.9856C90.8833 23.094 88.9273 22.6481 86.7515 22.6481C83.9068 22.6481 81.3891 23.3535 79.1936 24.7535C76.9975 26.1536 75.2614 28.067 73.9847 30.4881C72.708 32.9092 72.0693 35.6524 72.0693 38.7063C72.0693 41.7603 72.708 44.4409 73.9847 46.862C75.2614 49.2831 77.008 51.1965 79.2245 52.5966C81.441 53.9966 83.953 54.702 86.7515 54.702C88.9266 54.702 90.8931 54.2298 92.6551 53.2969C93.408 52.8973 94.0733 52.4131 94.6825 51.8756C94.969 51.6224 95.413 51.8272 95.413 52.2126V53.159C95.413 53.656 95.81 54.0592 96.2996 54.0592H102.686C103.176 54.0592 103.573 53.656 103.573 53.159V8.89585C103.573 8.39883 103.176 7.99567 102.686 7.99567H96.2379C95.7484 7.99567 95.3513 8.39883 95.3513 8.89585V25.0109ZM94.8814 43.0039C94.2329 44.2589 93.3344 45.2337 92.1803 45.9383C91.0311 46.638 89.683 46.9857 88.136 46.9857C86.6702 46.9857 85.3529 46.638 84.1834 45.9383C83.009 45.233 82.1 44.2581 81.4515 43.0039C80.803 41.7546 80.4815 40.2976 80.4815 38.643C80.4815 36.9884 80.803 35.6048 81.4515 34.3761C82.1 33.1424 82.9985 32.1676 84.1526 31.4416C85.3018 30.7206 86.6499 30.3629 88.1969 30.3629C89.7439 30.3629 91.0311 30.7106 92.1803 31.4103C93.3344 32.1157 94.2329 33.0905 94.8814 34.3448C95.5299 35.5941 95.8514 37.0304 95.8514 38.643C95.8514 40.2557 95.5299 41.7539 94.8814 43.0039Z" fill="white"/>
<path d="M115.542 23.2909H109.032C108.542 23.2909 108.145 23.6939 108.145 24.1911V53.1583C108.145 53.6554 108.542 54.0584 109.032 54.0584H115.542C116.032 54.0584 116.429 53.6554 116.429 53.1583V24.1911C116.429 23.6939 116.032 23.2909 115.542 23.2909Z" fill="white"/>
<path d="M112.287 8.76288C110.944 8.76288 109.836 9.22932 108.958 10.1629C108.079 11.0965 107.64 12.2264 107.64 13.5432C107.64 14.8601 108.079 16.0319 108.958 16.9449C109.836 17.8628 110.944 18.3186 112.287 18.3186C113.629 18.3186 114.784 17.8621 115.642 16.9449C116.5 16.0326 116.929 14.902 116.929 13.5432C116.929 12.1844 116.5 11.0958 115.642 10.1629C114.784 9.22932 113.666 8.76288 112.287 8.76288Z" fill="white"/>
<path d="M140.816 46.1929C139.703 46.68 138.462 46.9239 137.078 46.9239C135.572 46.9239 134.224 46.5712 133.034 45.8765C131.839 45.1711 130.899 44.1963 130.21 42.942C129.521 41.687 129.174 40.2564 129.174 38.6438C129.174 37.0311 129.521 35.5536 130.21 34.3455C130.899 33.1325 131.839 32.1783 133.034 31.4729C134.224 30.7732 135.572 30.4255 137.078 30.4255C138.416 30.4255 139.642 30.6588 140.75 31.1252C141.6 31.4836 142.361 31.9664 143.026 32.575C143.37 32.89 143.901 32.8587 144.227 32.5245L148.275 28.3706C148.612 28.0243 148.627 27.4591 148.288 27.1149C146.953 25.7618 145.415 24.6974 143.672 23.923C141.66 23.0314 139.463 22.5856 137.079 22.5856C134.025 22.5856 131.257 23.3009 128.765 24.7215C126.279 26.1422 124.323 28.0656 122.897 30.4874C121.478 32.9085 120.763 35.6517 120.763 38.7056C120.763 41.7596 121.478 44.4402 122.897 46.8613C124.322 49.2824 126.268 51.1958 128.735 52.5959C131.201 53.9959 133.984 54.7013 137.079 54.7013C139.463 54.7013 141.66 54.2554 143.672 53.3638C145.42 52.5873 146.993 51.5037 148.392 50.1136C148.739 49.7687 148.727 49.1942 148.383 48.8458L144.307 44.7068C143.976 44.3705 143.436 44.3463 143.095 44.6727C142.426 45.3112 141.665 45.8182 140.816 46.1929Z" fill="white"/>
<path d="M178.085 30.0728C176.809 27.7605 175.052 25.9353 172.815 24.5978C170.578 23.2603 167.994 22.5862 165.068 22.5862C162.143 22.5862 159.395 23.3016 156.969 24.7222C154.543 26.1429 152.634 28.0563 151.229 30.4568C149.83 32.8523 149.126 35.5848 149.126 38.6437C149.126 41.7026 149.851 44.5077 151.291 46.9238C152.737 49.3449 154.692 51.2484 157.159 52.6271C159.63 54.0065 162.455 54.7012 165.631 54.7012C168.097 54.7012 170.39 54.2554 172.504 53.3637C174.348 52.5844 175.949 51.4802 177.299 50.051C177.626 49.704 177.603 49.1458 177.268 48.8052L173.67 45.1519C173.335 44.812 172.792 44.7957 172.448 45.1263C171.663 45.8821 170.771 46.4723 169.772 46.8925C168.516 47.4216 167.117 47.691 165.57 47.691C163.854 47.691 162.348 47.3177 161.051 46.5711C159.754 45.8352 158.763 44.7665 158.074 43.3878C157.985 43.2108 157.906 43.0273 157.835 42.8382C157.616 42.2537 158.051 41.6266 158.668 41.6251L178.85 41.5754C179.278 41.5746 179.638 41.2597 179.721 40.8337C179.805 40.4029 179.867 40.0025 179.91 39.6349C179.971 39.054 180.001 38.4944 180.001 37.9448C180.001 35.0103 179.363 32.3865 178.086 30.0742L178.085 30.0728ZM158.671 35.3786C158.059 35.38 157.614 34.7614 157.831 34.1805C157.883 34.0397 157.941 33.9018 158.005 33.7695C158.654 32.4264 159.583 31.3897 160.799 30.6431C162.014 29.9071 163.434 29.5338 165.068 29.5338C166.615 29.5338 167.922 29.8602 168.989 30.5186C170.057 31.1771 170.868 32.1263 171.436 33.355C171.552 33.6095 171.657 33.879 171.752 34.1613C171.945 34.7394 171.508 35.3424 170.907 35.3438L158.671 35.3786Z" fill="white"/>
</g>
<path d="M15.2842 87.7109V89.2578H13.8955V93.2393C14.5898 93.1865 15.2666 93.1162 15.917 93.0371L16.0576 94.4961C12.876 95.0059 9.17578 95.0674 6.5127 95.0762L6.30176 93.459C6.87305 93.459 7.48828 93.459 8.12988 93.4502V89.2578H6.72363V87.7109H15.2842ZM8.56934 102.371V96.1133H10.5205V97.6777H16.9189V96.1133H18.8701V102.371H8.56934ZM10.0107 93.4238C10.6611 93.4062 11.3291 93.3799 11.9971 93.3535V89.2578H10.0107V93.4238ZM10.5205 100.789H16.9189V99.207H10.5205V100.789ZM16.9189 95.498V86.6738H18.8701V90.1895H21.085V91.8242H18.8701V95.498H16.9189ZM26.3057 87.377C28.3623 87.3682 29.9795 88.5547 30.375 90.2949H33.249V86.6738H35.2002V95.1992H33.249V91.877H30.3926C30.0146 93.6611 28.3799 94.8652 26.3057 94.8652C23.8711 94.8652 22.1045 93.3008 22.1045 91.1035C22.1045 88.9326 23.8711 87.3682 26.3057 87.377ZM23.9678 91.1035C23.9678 92.3779 24.9346 93.2217 26.3057 93.2129C27.6416 93.2217 28.5996 92.3779 28.6084 91.1035C28.5996 89.8291 27.6416 89.0029 26.3057 89.0117C24.9346 89.0029 23.9678 89.8291 23.9678 91.1035ZM24.7236 102.371V95.9375H26.6572V97.625H33.249V95.9375H35.2002V102.371H24.7236ZM26.6572 100.789H33.249V99.1367H26.6572V100.789ZM56.2236 94.5312V96.0957H50.0889V99.0137H48.1025V96.0957H41.7041V94.5312H56.2236ZM43.251 90.2773C43.2422 88.2822 45.5273 87.0254 48.9463 87.0254C52.3828 87.0254 54.6416 88.2822 54.6416 90.2773C54.6416 92.2812 52.3828 93.5205 48.9463 93.5117C45.5273 93.5205 43.2422 92.2812 43.251 90.2773ZM43.4795 102.248V97.5371H45.4482V100.648H54.624V102.248H43.4795ZM45.3604 90.2773C45.3428 91.332 46.7666 91.9473 48.9463 91.9473C51.1436 91.9473 52.5586 91.332 52.5498 90.2773C52.5586 89.1875 51.1436 88.5723 48.9463 88.5723C46.7666 88.5723 45.3428 89.1875 45.3604 90.2773ZM61.6904 87.5703C62.9736 87.5615 64.0898 88.0361 64.8369 88.8359H68.6338V86.6738H70.585V96.0254H68.6338V94.0039H64.8281C64.0723 94.7861 62.9648 95.2607 61.6904 95.252C59.291 95.2607 57.4893 93.6523 57.4893 91.4199C57.4893 89.1699 59.291 87.5615 61.6904 87.5703ZM59.3525 91.4199C59.3525 92.7207 60.3281 93.5996 61.6904 93.5996C63.0088 93.5996 63.9844 92.7207 63.9932 91.4199C63.9844 90.0752 63.0088 89.2402 61.6904 89.2402C60.3281 89.2402 59.3525 90.0752 59.3525 91.4199ZM59.8096 99.4531C59.792 97.4932 61.875 96.3506 65.2061 96.3594C68.5459 96.3506 70.6289 97.4932 70.6377 99.4531C70.6289 101.404 68.5459 102.547 65.2061 102.547C61.875 102.547 59.792 101.404 59.8096 99.4531ZM61.7256 99.4531C61.708 100.464 63 101.009 65.2061 101.018C67.4561 101.009 68.7217 100.464 68.7217 99.4531C68.7217 98.416 67.4561 97.8623 65.2061 97.8535C63 97.8623 61.708 98.416 61.7256 99.4531ZM65.7158 90.4004C65.8037 90.7256 65.8564 91.0596 65.8564 91.4199C65.8564 91.7715 65.8037 92.1055 65.7246 92.4219H68.6338V90.4004H65.7158ZM84.3311 86.832C87.9521 86.8408 90.0527 87.8076 90.0615 89.5566C90.0527 91.1738 88.3125 92.1055 85.2803 92.2725V93.2832H91.5908V94.8477H77.1064V93.2832H83.3467V92.2725C80.3408 92.1055 78.6006 91.165 78.6006 89.5566C78.6006 87.8076 80.7188 86.8408 84.3311 86.832ZM78.8115 97.3438V95.8672H89.7803V99.752H80.7451V100.93H90.2197V102.424H78.8291V98.3633H87.8643V97.3438H78.8115ZM80.6572 89.5566C80.6484 90.4355 81.9141 90.8398 84.3311 90.8574C86.7832 90.8398 88.04 90.4355 88.04 89.5566C88.04 88.7393 86.7832 88.2998 84.3311 88.291C81.9141 88.2998 80.6484 88.7393 80.6572 89.5566ZM105.899 86.6914V98.1699H103.931V86.6914H105.899ZM92.9443 91.7012C92.9443 89.3896 94.8164 87.7373 97.2334 87.7285C99.6504 87.7373 101.514 89.3896 101.505 91.7012C101.514 94.0479 99.6504 95.6914 97.2334 95.6914C94.8164 95.6914 92.9443 94.0479 92.9443 91.7012ZM94.8604 91.7012C94.8516 93.1074 95.8711 93.9863 97.2334 93.9863C98.5605 93.9863 99.5889 93.1074 99.5889 91.7012C99.5889 90.3301 98.5605 89.4336 97.2334 89.4336C95.8711 89.4336 94.8516 90.3301 94.8604 91.7012ZM95.3877 102.248V97.0098H97.3564V100.666H106.339V102.248H95.3877ZM121.544 86.6914V98.7148H119.575V97.3262H116.464V95.9551H119.575V86.6914H121.544ZM108.149 93.8281C111.076 93.8105 115.022 93.7842 118.397 93.3535L118.503 94.7598C117.193 94.9795 115.84 95.1201 114.495 95.2168V98.2754H112.544V95.3223C111.059 95.3838 109.644 95.3926 108.396 95.3926L108.149 93.8281ZM109.362 90.084C109.362 88.4053 110.979 87.2627 113.335 87.2715C115.646 87.2627 117.272 88.4053 117.29 90.084C117.272 91.7891 115.646 92.8701 113.335 92.8789C110.979 92.8701 109.362 91.7891 109.362 90.084ZM110.259 102.248V97.5547H112.21V100.666H121.913V102.248H110.259ZM111.208 90.084C111.208 90.9453 112.061 91.4463 113.335 91.4551C114.548 91.4463 115.418 90.9453 115.427 90.084C115.418 89.2227 114.548 88.7041 113.335 88.7129C112.061 88.7041 111.208 89.2227 111.208 90.084ZM136.239 91.4727V93.3184H142.532V94.8828H128.048V93.3184H134.306V91.4727H136.239ZM128.786 90.8926C132.179 90.5586 134.271 89.0469 134.271 87.2363V86.8145H136.257V87.2363C136.257 89.0469 138.34 90.5586 141.741 90.8926L141.056 92.3867C138.393 92.0527 136.283 91.0508 135.255 89.5039C134.235 91.0508 132.135 92.0527 129.472 92.3867L128.786 90.8926ZM129.753 97.3438V95.8496H140.722V99.7871H131.687V100.93H141.161V102.424H129.771V98.3984H138.806V97.3438H129.753ZM156.419 87.2188V91.7363H147.296V93.3184H156.771V94.8828H145.327V90.2598H154.415V88.8008H145.292V87.2188H156.419ZM143.587 97.8008V96.2363H158.106V97.8008H151.796V102.582H149.845V97.8008H143.587ZM164.944 89.4863C164.936 91.7275 166.192 93.9072 168.636 94.8301L167.546 96.3418C165.85 95.6738 164.637 94.3467 163.978 92.7031C163.292 94.4697 162.009 95.8672 160.181 96.5703L159.126 95.0234C161.657 94.1094 162.967 91.8682 162.976 89.4863V87.5879H164.944V89.4863ZM161.991 102.248V97.3262H163.978V100.666H172.819V102.248H161.991ZM167.616 93.5645V92H170.517V90.4355H167.616V88.8535H170.517V86.6914H172.468V98.4863H170.517V93.5645H167.616Z" fill="white"/>
<defs>
<clipPath id="clip0_187_3671">
<rect width="180" height="65" fill="white"/>
</clipPath>
</defs>
</svg>
