<svg width="25" height="24" viewBox="0 0 25 24" fill="none" xmlns="http://www.w3.org/2000/svg">
<path d="M16.1855 3C16.7156 3 17.2246 3.21039 17.5996 3.58496L20.9131 6.89551C21.2887 7.27065 21.5 7.77971 21.5 8.31055V12.9893C21.5 13.5201 21.2886 14.0292 20.9131 14.4043L17.5996 17.7148C17.2246 18.0894 16.7156 18.2998 16.1855 18.2998H6.35059C6.24426 18.2999 6.14236 18.3426 6.06738 18.418L4.35449 20.1406C4.03993 20.4569 3.50006 20.2341 3.5 19.7881V8.31055C3.5 7.77971 3.71134 7.27065 4.08691 6.89551L7.40039 3.58496C7.7754 3.21039 8.28442 3 8.81445 3H16.1855ZM8.90039 10.2002C8.40346 10.2002 8.00021 10.6027 8 11.0996C8 11.5967 8.40333 12 8.90039 12C9.39727 11.9998 9.7998 11.5965 9.7998 11.0996C9.79959 10.6029 9.39714 10.2004 8.90039 10.2002ZM12.5 10.2002C12.0031 10.2002 11.5999 10.6028 11.5996 11.0996C11.5996 11.5967 12.0029 12 12.5 12C12.9971 12 13.4004 11.5967 13.4004 11.0996C13.4001 10.6028 12.9969 10.2002 12.5 10.2002ZM16.0996 10.2002C15.6029 10.2004 15.2005 10.6029 15.2002 11.0996C15.2002 11.5965 15.6027 11.9998 16.0996 12C16.5967 12 17 11.5967 17 11.0996C16.9997 10.6028 16.5965 10.2002 16.0996 10.2002Z" fill="black"/>
</svg>
