<svg width="17" height="16" viewBox="0 0 17 16" fill="none" xmlns="http://www.w3.org/2000/svg">
<path d="M15.1668 7.99992C15.1668 11.6818 12.1821 14.6666 8.50016 14.6666M15.1668 7.99992C15.1668 4.31802 12.1821 1.33325 8.50016 1.33325M15.1668 7.99992H1.8335M8.50016 14.6666C4.81826 14.6666 1.8335 11.6818 1.8335 7.99992M8.50016 14.6666C10.1677 12.841 11.1153 10.4719 11.1668 7.99992C11.1153 5.52794 10.1677 3.15882 8.50016 1.33325M8.50016 14.6666C6.83264 12.841 5.88499 10.4719 5.8335 7.99992C5.88499 5.52794 6.83264 3.15882 8.50016 1.33325M1.8335 7.99992C1.8335 4.31802 4.81826 1.33325 8.50016 1.33325" stroke="#CCCCCC" stroke-width="1.33333" stroke-linecap="round" stroke-linejoin="round"/>
</svg>
