<svg width="24" height="24" viewBox="0 0 24 24" fill="none" xmlns="http://www.w3.org/2000/svg">
<rect x="6" y="2" width="2" height="3" rx="0.5" fill="white"/>
<rect x="16" y="2" width="2" height="3" rx="0.5" fill="white"/>
<path d="M19.5859 4C19.8511 4.00004 20.1055 4.10547 20.293 4.29297L21.707 5.70703C21.8945 5.89453 22 6.1489 22 6.41406V17.5859C22 17.8511 21.8945 18.1055 21.707 18.293L20.293 19.707C20.1055 19.8945 19.8511 20 19.5859 20H4.41406C4.1489 20 3.89453 19.8945 3.70703 19.707L2.29297 18.293C2.10547 18.1055 2.00004 17.8511 2 17.5859V6.41406C2.00004 6.1489 2.10547 5.89453 2.29297 5.70703L3.70703 4.29297C3.89453 4.10547 4.1489 4.00004 4.41406 4H19.5859ZM12 6C8.68629 6 6 8.68629 6 12C6 15.3137 8.68629 18 12 18C15.3137 18 18 15.3137 18 12C18 8.68629 15.3137 6 12 6Z" fill="white"/>
<path d="M9 12L11.1 14L15 10" stroke="white" stroke-width="1.4" stroke-linecap="round" stroke-linejoin="round"/>
</svg>
